<svg width="100" height="100" viewBox="0 0 100 100" fill="none" xmlns="http://www.w3.org/2000/svg">
<path d="M0 80.7396L0 34.6065C0 32.0738 2.05374 30.0207 4.58716 30.0207C7.12057 30.0207 9.17431 32.0738 9.17431 34.6065V80.7396C9.17431 84.9358 10.212 87.2385 11.4804 88.5194C12.7405 89.7917 14.9943 90.8284 19.1191 90.8284H80.8809C85.0057 90.8284 87.2595 89.7917 88.5196 88.5194C89.788 87.2385 90.8257 84.9358 90.8257 80.7396V19.2899C90.8257 15.0937 89.788 12.791 88.5196 11.5101C87.2595 10.2379 85.0057 9.20113 80.8809 9.20111L34.5872 9.17162C32.0537 9.17162 30 7.11849 30 4.58582C30 2.05315 32.0537 1.52588e-05 34.5872 1.52588e-05L80.8809 0.0295057C86.4437 0.0295293 91.4562 1.43869 95.0401 5.05777C98.6155 8.66837 100 13.7032 100 19.2899V80.7396C100 86.3264 98.6155 91.3611 95.0401 94.9718C91.4562 98.5908 86.4437 100 80.8809 100H19.1191C13.5564 100 8.54469 98.5907 4.96076 94.9718C1.38519 91.3611 0 86.3265 0 80.7396Z" fill="#FBFAF6"/>
<path d="M10 20.0295C15.5228 20.0295 20 15.5524 20 10.0295C20 4.50666 15.5228 0.0295105 10 0.0295105C4.47715 0.0295105 0 4.50666 0 10.0295C0 15.5524 4.47715 20.0295 10 20.0295Z" fill="#FF5A1F"/>
</svg>
